<svg xmlns="http://www.w3.org/2000/svg" width="500" height="63.5" viewBox="0 0 1000 127">
  <defs>
    <style>
      .cls-1 {
        fill: #101010;
        fill-rule: evenodd;
      }
    </style>
  </defs>
  <path id="insta.download" class="cls-1" d="M35.322,12.8H14.728V31.048H35.322V12.8Zm0.415,26.4H14.176v71.319H35.737V39.2Zm33.586,10.09V39.2H48.315v71.319H69.876V70.716q0-7.049,3.87-10.919a13.13,13.13,0,0,1,9.675-3.87q11.471,0,11.472,12.163v42.432h21.561V63.805q0-12.575-6.7-19.419T91.714,37.544q-14.1,0-22.391,11.748h0Zm114.649,57.29q8.914-6.013,8.915-17.07,0-9.4-6.081-14.789T167.87,67.4l-10.642-1.52q-5.391-.829-7.879-2.488a5.323,5.323,0,0,1-2.487-4.7q0-6.77,10.919-6.773,12.99,0,13.13,10.09h20.041q-1.244-24.464-33.171-24.464-15.481,0-23.773,5.874t-8.293,16.655q0,18.108,24.049,21.838l9.26,1.52q7.05,1.108,9.675,2.833a5.665,5.665,0,0,1,2.627,5.045q0,6.913-12.025,6.911-6.913,0-10.021-2.35t-3.662-8.016H124.609q0.966,12.993,9.191,18.867t25.086,5.874Q175.058,112.6,183.972,106.583ZM227.441,39.2V18.056H205.879V39.2H195.237V54.959h10.642V90.619q0,10.92,5.943,15.687t19.35,4.769a73.1,73.1,0,0,0,9.952-.553V94.489H235.6q-4.56,0-6.358-1.313t-1.8-4.907V54.959h13.683V39.2H227.441ZM315.9,97.391V59.521q0-21.976-31.789-21.976-32.207,0-34.139,24.74h21.423q0.55-5.39,3.248-7.394t9.329-2q10.917,0,10.919,7.187,0,6.084-9.26,7.049l-11.195.968q-27.921,2.352-27.92,22.252,0,10.23,7.118,16.033T272.5,112.18q15.616,0,22.8-9.675a18.374,18.374,0,0,0,1.8,8.017h21.7q-2.9-4.147-2.9-13.131h0Zm-44.643-1.935a7.209,7.209,0,0,1-2.765-5.943q0-7.464,10.367-8.569l8.845-.968q5.251-.69,7.187-2.764v5.252q0,7.6-4.284,11.4T279,97.668Q274.02,97.668,271.255,95.456Zm78.367,12.992a11.408,11.408,0,0,0,3.594-8.569,11.2,11.2,0,0,0-3.594-8.5,12.594,12.594,0,0,0-8.984-3.386,12.772,12.772,0,0,0-9.122,3.386,11.188,11.188,0,0,0-3.593,8.5,11.342,11.342,0,0,0,3.593,8.639,12.776,12.776,0,0,0,9.122,3.386A12.453,12.453,0,0,0,349.622,108.448Zm44.782-70.9q-14.376,0-22.667,10.09-8.433,10.091-8.431,27.228t8.431,27.229q8.292,10.091,22.667,10.089,14.233,0,21.423-10.919v9.261h21.009V12.113H415.274V47.772q-7.327-10.227-20.87-10.228h0Zm-9.26,37.871q0-9.951,4.008-15.273a13.216,13.216,0,0,1,11.195-5.321q15.342,0,15.342,20.041T400.347,94.9q-15.206,0-15.2-19.488h0Zm125.913,26.537q10.088-10.087,10.09-27.09,0-17.136-10.09-27.228t-27.228-10.09q-17.141,0-27.228,10.09-10.23,10.23-10.228,27.228,0,16.864,10.228,27.09t27.228,10.228q17,0,27.228-10.228h0ZM472.219,89.79q-4.011-5.112-4.008-14.927t4.008-14.927q4.007-5.112,11.61-5.114,7.464,0,11.472,5.114t4.008,14.927q0,9.815-4.008,14.927T483.829,94.9Q476.226,94.9,472.219,89.79ZM603.246,86.2q-2.626-10.917-6.219-24.188l-6.5-22.805h-19.9l-6.5,22.805q-3.6,13.269-6.22,24.188-3.181-12.025-6.634-24.049L544.643,39.2h-23.22l23.359,71.319h22.667l7.878-26.814q2.624-9.258,5.114-19.212,2.624,10.23,5.39,19.212l7.879,26.814h22.667L639.6,39.2H616.515l-6.634,22.944q-3.457,12.025-6.635,24.049h0Zm63.164-36.9V39.2H645.4v71.319h21.561V70.716q0-7.049,3.87-10.919a13.131,13.131,0,0,1,9.675-3.87q11.47,0,11.472,12.163v42.432h21.562V63.805q0-12.575-6.7-19.419T688.8,37.544q-14.1,0-22.391,11.748h0Zm81.132-37.18H725.981v98.409h21.561V12.113Zm74.36,89.839q10.087-10.087,10.09-27.09,0-17.136-10.09-27.228t-27.228-10.09q-17.14,0-27.229,10.09-10.23,10.23-10.228,27.228,0,16.864,10.228,27.09t27.229,10.228q17,0,27.228-10.228h0ZM783.064,89.79q-4.011-5.112-4.009-14.927t4.009-14.927q4.007-5.112,11.61-5.114,7.463,0,11.471,5.114t4.009,14.927q0,9.815-4.009,14.927T794.674,94.9Q787.071,94.9,783.064,89.79Zm123.84,7.6V59.521q0-21.976-31.789-21.976-32.207,0-34.139,24.74H862.4q0.55-5.39,3.248-7.394t9.329-2q10.917,0,10.919,7.187,0,6.084-9.26,7.049l-11.195.968q-27.921,2.352-27.92,22.252,0,10.23,7.118,16.033t18.867,5.805q15.617,0,22.8-9.675a18.374,18.374,0,0,0,1.8,8.017h21.7q-2.9-4.147-2.9-13.131h0Zm-44.643-1.935a7.209,7.209,0,0,1-2.765-5.943q0-7.464,10.366-8.569l8.846-.968q5.251-.69,7.187-2.764v5.252q0,7.6-4.284,11.4T870,97.668Q865.024,97.668,862.261,95.456ZM945.88,37.544q-14.376,0-22.667,10.09-8.431,10.091-8.431,27.228t8.431,27.229q8.293,10.091,22.667,10.089,14.235,0,21.424-10.919v9.261h21.008V12.113H966.751V47.772q-7.327-10.227-20.871-10.228h0Zm-9.26,37.871q0-9.951,4.008-15.273a13.219,13.219,0,0,1,11.2-5.321q15.342,0,15.342,20.041T951.824,94.9q-15.207,0-15.2-19.488h0Z"/>
</svg>
